<svg width="49" height="49" viewBox="0 0 49 49" fill="none" xmlns="http://www.w3.org/2000/svg">
<g clip-path="url(#clip0_211_455)">
<mask id="mask0_211_455" style="mask-type:luminance" maskUnits="userSpaceOnUse" x="0" y="0" width="49" height="49">
<path d="M49 0H0V49H49V0Z" fill="white"/>
</mask>
<g mask="url(#mask0_211_455)">
<path d="M25.735 44.1531C13.1884 44.3834 0.340212 33.4839 3.08333 19.5847C5.09138 7.68369 17.3213 6.34887 27.3782 5.46518C37.3113 4.59235 45.5466 13.8404 43.2715 24.5254C39.8698 40.1063 35.7457 44.0181 25.735 44.1531Z" fill="#8FFAF5" fill-opacity="0.15"/>
<path d="M19.7744 7.09455C30.8941 5.70738 43.31 14.1746 42.1586 26.7752C41.4752 37.5322 30.7388 39.8703 21.8903 41.603C13.1507 43.3144 4.98342 35.8787 6.01629 26.1763C7.59714 12.0204 10.8977 8.15807 19.7744 7.09455Z" fill="#87C9C6" fill-opacity="0.2"/>
<g opacity="0.99">
<path d="M37.2974 19.8735L37.2943 33.2793C37.2943 33.4768 37.2589 33.6671 37.1958 33.8424C36.966 34.4813 36.3527 34.9378 35.6357 34.9378L12.3532 34.9328C11.6327 34.9329 11.0188 34.4703 10.7922 33.8275C10.7302 33.654 10.6976 33.468 10.6967 33.2738L10.6997 19.8737C10.6999 19.4857 10.8328 19.2517 11.0553 18.9695C11.3187 18.6352 20.5147 18.8582 23.0215 18.752C23.4016 18.7358 23.8392 18.7356 24.2209 18.7515C26.7352 18.8562 36.6338 18.4913 36.898 18.7991C37.1458 19.0878 37.2959 19.4629 37.2974 19.8735ZM37.2974 19.8735L37.2943 33.2793C37.2943 33.4768 37.2589 33.6671 37.1958 33.8424C36.966 34.4813 36.3527 34.9378 35.6357 34.9378L12.3532 34.9328C11.6327 34.9329 11.0188 34.4703 10.7922 33.8275C10.7302 33.654 10.6976 33.468 10.6967 33.2738L10.6997 19.8737C10.6999 19.4857 10.8328 19.2517 11.0553 18.9695C11.3187 18.6352 20.5147 18.8582 23.0215 18.752C23.4016 18.7358 23.8392 18.7356 24.2209 18.7515C26.7352 18.8562 36.6338 18.4913 36.898 18.7991C37.1458 19.0878 37.2959 19.4629 37.2974 19.8735Z" fill="black" fill-opacity="0.2"/>
<path d="M37.7365 19.5168L37.7334 32.9226C37.7333 33.1201 37.698 33.3103 37.6348 33.4856C37.4051 34.1246 36.7917 34.5811 36.0747 34.5811L12.7922 34.5761C12.0717 34.5762 11.4579 34.1136 11.2313 33.4708C11.1692 33.2973 11.1367 33.1113 11.1357 32.9171L11.1388 19.5169C11.1389 19.1289 11.2719 18.895 11.4943 18.6128C11.7577 18.2784 21.2965 11.3257 23.8034 9.50082C24.1834 9.22413 24.6212 9.22221 25.0029 9.4951C27.5172 11.2931 37.0729 18.1346 37.3371 18.4424C37.5848 18.7311 37.735 19.1061 37.7365 19.5168ZM37.7365 19.5168L37.7334 32.9226C37.7333 33.1201 37.698 33.3103 37.6348 33.4856C37.4051 34.1246 36.7917 34.5811 36.0747 34.5811L12.7922 34.5761C12.0717 34.5762 11.4579 34.1136 11.2313 33.4708C11.1692 33.2973 11.1367 33.1113 11.1357 32.9171L11.1388 19.5169C11.1389 19.1289 11.2719 18.895 11.4943 18.6128C11.7577 18.2784 21.2965 11.3257 23.8034 9.50082C24.1834 9.22413 24.6212 9.22221 25.0029 9.4951C27.5172 11.2931 37.0729 18.1346 37.3371 18.4424C37.5848 18.7311 37.735 19.1061 37.7365 19.5168Z" fill="#0D6E6A"/>
<path d="M36.5711 13.3721L36.5797 26.9995C36.5801 27.6295 36.0694 28.1405 35.4393 28.141L13.565 28.1709C12.9349 28.1713 12.4237 27.6607 12.4233 27.0306L12.4146 13.4034C12.4142 12.7733 12.9249 12.2622 13.555 12.2618L35.4295 12.2319C36.0596 12.2315 36.5706 12.742 36.5711 13.3721ZM36.5711 13.3721L36.5797 26.9995C36.5801 27.6295 36.0694 28.1405 35.4393 28.141L13.565 28.1709C12.9349 28.1713 12.4237 27.6607 12.4233 27.0306L12.4146 13.4034C12.4142 12.7733 12.9249 12.2622 13.555 12.2618L35.4295 12.2319C36.0596 12.2315 36.5706 12.742 36.5711 13.3721Z" fill="white"/>
<path d="M15.8581 16.9656L32.5358 16.9639M15.858 14.3992L23.6668 14.411M16.0119 24.696L32.6883 24.6935M16.0106 22.1297L23.8206 22.1415M15.9609 22.1193L32.6373 22.1168M15.9596 19.5531L23.7696 19.5648M15.9099 19.5427L32.5862 19.5402M15.9085 16.9764L23.7185 16.9882" stroke="#ACACAC" stroke-width="0.814968" stroke-linecap="round" stroke-linejoin="round"/>
<path d="M37.7364 19.6394L37.7334 32.9226C37.7333 33.1201 37.698 33.3104 37.6348 33.4857C37.4051 34.1246 36.7917 34.5811 36.0747 34.5811L12.7922 34.5762C12.0717 34.5762 11.4579 34.1136 11.2313 33.4708C11.1692 33.2973 11.1367 33.1113 11.1357 32.9171L11.1388 19.6396C11.1393 18.7226 11.8824 18.4241 12.7957 18.9855L24.3038 26.24L36.0782 18.9905C36.9459 18.4732 37.7329 18.7243 37.7364 19.6394ZM37.7364 19.6394L37.7334 32.9226C37.7333 33.1201 37.698 33.3104 37.6348 33.4857C37.4051 34.1246 36.7917 34.5811 36.0747 34.5811L12.7922 34.5762C12.0717 34.5762 11.4579 34.1136 11.2313 33.4708C11.1692 33.2973 11.1367 33.1113 11.1357 32.9171L11.1388 19.6396C11.1393 18.7226 11.8824 18.4241 12.7957 18.9855L24.3038 26.24L36.0782 18.9905C36.9459 18.4732 37.7329 18.7243 37.7364 19.6394ZM37.6349 33.457C37.4052 34.1127 36.7917 34.5811 36.0747 34.5811L12.7923 34.576C12.0718 34.5761 11.4578 34.1013 11.2313 33.4418L23.4402 25.2591C23.4402 25.2591 24.0042 24.8921 24.4664 24.8974C24.9286 24.9027 25.4197 25.2831 25.4197 25.2831L37.6349 33.457ZM37.6349 33.457C37.4052 34.1127 36.7917 34.5811 36.0747 34.5811L12.7923 34.576C12.0718 34.5761 11.4578 34.1013 11.2313 33.4418L23.4402 25.2591C23.4402 25.2591 24.0042 24.8921 24.4664 24.8974C24.9286 24.9027 25.4197 25.2831 25.4197 25.2831L37.6349 33.457ZM37.6348 33.4857C37.4051 34.1246 36.7917 34.5811 36.0747 34.5811L12.7922 34.5762C12.0717 34.5762 11.4579 34.1136 11.2313 33.4708L23.4402 25.4966C23.4402 25.4966 24.0042 25.1389 24.4664 25.1441C24.9286 25.1492 25.4199 25.5199 25.4199 25.5199L37.6348 33.4857ZM37.6348 33.4857C37.4051 34.1246 36.7917 34.5811 36.0747 34.5811L12.7922 34.5762C12.0717 34.5762 11.4579 34.1136 11.2313 33.4708L23.4402 25.4966C23.4402 25.4966 24.0042 25.1389 24.4664 25.1441C24.9286 25.1492 25.4199 25.5199 25.4199 25.5199L37.6348 33.4857ZM12.0179 18.4148C12.0176 18.4151 12.0167 18.4161 12.016 18.4168C12.016 18.4168 12.0158 18.4172 12.0159 18.4174C12.016 18.4178 12.0159 18.4179 12.0159 18.4179L12.0201 18.4179C12.0201 18.4179 12.0202 18.4179 12.0202 18.4174C12.0203 18.4172 12.0202 18.4169 12.0202 18.4169C12.0196 18.4162 12.0183 18.4149 12.0179 18.4148ZM12.0179 18.4148C12.0176 18.4151 12.0167 18.4161 12.016 18.4168C12.016 18.4168 12.0158 18.4172 12.0159 18.4174C12.016 18.4178 12.0159 18.4179 12.0159 18.4179L12.0201 18.4179C12.0201 18.4179 12.0202 18.4179 12.0202 18.4174C12.0203 18.4172 12.0202 18.4169 12.0202 18.4169C12.0196 18.4162 12.0183 18.4149 12.0179 18.4148Z" fill="#0D6E6A"/>
<path d="M37.6349 33.457C37.4052 34.1127 36.7917 34.5811 36.0747 34.5811L12.7922 34.576C12.0718 34.5761 11.4578 34.1013 11.2313 33.4418L23.4402 25.2591C23.4402 25.2591 24.0042 24.8921 24.4664 24.8974C24.9286 24.9027 25.4197 25.2831 25.4197 25.2831L37.6349 33.457ZM37.6349 33.457C37.4052 34.1127 36.7917 34.5811 36.0747 34.5811L12.7922 34.576C12.0718 34.5761 11.4578 34.1013 11.2313 33.4418L23.4402 25.2591C23.4402 25.2591 24.0042 24.8921 24.4664 24.8974C24.9286 24.9027 25.4197 25.2831 25.4197 25.2831L37.6349 33.457ZM37.6348 33.4857C37.4051 34.1246 36.7917 34.5811 36.0747 34.5811L12.7922 34.576C12.0718 34.5761 11.4579 34.1136 11.2313 33.4708L23.4402 25.4966C23.4402 25.4966 24.0042 25.1389 24.4664 25.1441C24.9286 25.1492 25.4199 25.5199 25.4199 25.5199L37.6348 33.4857ZM37.6348 33.4857C37.4051 34.1246 36.7917 34.5811 36.0747 34.5811L12.7922 34.576C12.0718 34.5761 11.4579 34.1136 11.2313 33.4708L23.4402 25.4966C23.4402 25.4966 24.0042 25.1389 24.4664 25.1441C24.9286 25.1492 25.4199 25.5199 25.4199 25.5199L37.6348 33.4857ZM12.0179 18.4148C12.0176 18.4151 12.0167 18.4161 12.016 18.4168C12.016 18.4168 12.0158 18.4172 12.0159 18.4174C12.016 18.4178 12.0159 18.4179 12.0159 18.4179L12.0201 18.4179C12.0201 18.4179 12.0202 18.4179 12.0202 18.4174C12.0203 18.4172 12.0202 18.4169 12.0202 18.4169C12.0196 18.4162 12.0182 18.4149 12.0179 18.4148ZM12.0179 18.4148C12.0176 18.4151 12.0167 18.4161 12.016 18.4168C12.016 18.4168 12.0158 18.4172 12.0159 18.4174C12.016 18.4178 12.0159 18.4179 12.0159 18.4179L12.0201 18.4179C12.0201 18.4179 12.0202 18.4179 12.0202 18.4174C12.0203 18.4172 12.0202 18.4169 12.0202 18.4169C12.0196 18.4162 12.0182 18.4149 12.0179 18.4148Z" fill="#202020" fill-opacity="0.3"/>
<path d="M37.6348 33.4857C37.4051 34.1246 36.7917 34.5811 36.0747 34.5811L12.7922 34.5762C12.0717 34.5763 11.4579 34.1136 11.2313 33.4708L23.4402 25.4966C23.4402 25.4966 24.0042 25.1389 24.4664 25.1441C24.9286 25.1492 25.4199 25.5199 25.4199 25.5199L37.6348 33.4857ZM37.6348 33.4857C37.4051 34.1246 36.7917 34.5811 36.0747 34.5811L12.7922 34.5762C12.0717 34.5763 11.4579 34.1136 11.2313 33.4708L23.4402 25.4966C23.4402 25.4966 24.0042 25.1389 24.4664 25.1441C24.9286 25.1492 25.4199 25.5199 25.4199 25.5199L37.6348 33.4857ZM12.0179 18.4148C12.0176 18.4151 12.0167 18.4161 12.016 18.4168C12.016 18.4168 12.0158 18.4172 12.0159 18.4174C12.016 18.4178 12.0159 18.4179 12.0159 18.4179L12.0201 18.4179C12.0201 18.4179 12.0202 18.4179 12.0202 18.4174C12.0203 18.4172 12.0202 18.4169 12.0202 18.4169C12.0196 18.4162 12.0182 18.4149 12.0179 18.4148ZM12.0179 18.4148C12.0176 18.4151 12.0167 18.4161 12.016 18.4168C12.016 18.4168 12.0158 18.4172 12.0159 18.4174C12.016 18.4178 12.0159 18.4179 12.0159 18.4179L12.0201 18.4179C12.0201 18.4179 12.0202 18.4179 12.0202 18.4174C12.0203 18.4172 12.0202 18.4169 12.0202 18.4169C12.0196 18.4162 12.0182 18.4149 12.0179 18.4148Z" fill="#0D6E6A"/>
</g>
<path d="M14.7284 21.7452C15.8595 21.5396 16.9449 22.2911 17.1504 23.4222C17.356 24.5534 16.6045 25.6387 15.4734 25.8443C14.3422 26.0499 13.2569 25.2984 13.0513 24.1672C12.8457 23.0361 13.5972 21.9508 14.7284 21.7452Z" fill="black" fill-opacity="0.18"/>
<path d="M14.793 21.3664C15.9242 21.1608 17.0095 21.9123 17.2151 23.0435C17.4207 24.1747 16.6692 25.26 15.538 25.4656C14.4068 25.6711 13.3215 24.9197 13.1159 23.7885C12.9104 22.6573 13.6619 21.572 14.793 21.3664ZM15.9464 24.4196C15.7906 24.5413 15.5667 24.6309 15.3471 24.6709C14.7055 24.7875 14.1704 24.4621 14.0398 23.7431C13.8903 22.9206 14.3734 22.2991 15.0322 22.1794C15.6996 22.0581 16.1403 22.4272 16.242 22.987C16.332 23.4821 16.1429 23.7635 15.9566 23.7906C15.8353 23.8082 15.784 23.6974 15.7809 23.4355L15.7653 22.6155C15.6467 22.5748 15.4228 22.5665 15.2333 22.6009C14.6133 22.7136 14.3126 23.262 14.4081 23.7873C14.4722 24.1404 14.7122 24.3103 14.9921 24.2594C15.2203 24.2179 15.3937 24.0708 15.4873 23.8269L15.4959 23.8254C15.5589 24.0497 15.7241 24.1264 15.9265 24.0896C16.3915 24.0051 16.6725 23.5448 16.5583 22.9161C16.4268 22.1928 15.7896 21.7704 15.0318 21.9081C14.0587 22.0849 13.5599 22.9629 13.7196 23.8413C13.8729 24.6852 14.5947 25.0834 15.3095 24.9535C15.6152 24.8979 15.8321 24.8185 16.0693 24.6553L15.9464 24.4196ZM15.3769 23.3666C15.3835 23.6234 15.2524 23.8563 15.0931 23.8852C14.951 23.911 14.859 23.821 14.8293 23.6574C14.769 23.3259 14.9421 23.0053 15.2263 22.9536C15.2822 22.9435 15.3268 22.9442 15.3628 22.9466L15.3769 23.3666Z" fill="#E1EAF5"/>
<path d="M15.9464 24.4196C15.7906 24.5413 15.5667 24.6309 15.3471 24.6708C14.7055 24.7874 14.1705 24.4621 14.0398 23.743C13.8903 22.9206 14.3734 22.2991 15.0322 22.1793C15.6996 22.058 16.1403 22.4272 16.242 22.987C16.332 23.4821 16.1429 23.7635 15.9566 23.7905C15.8353 23.8082 15.784 23.6974 15.7809 23.4355L15.7653 22.6155C15.6467 22.5748 15.4228 22.5665 15.2333 22.6009C14.6133 22.7136 14.3126 23.262 14.4081 23.7873C14.4723 24.1404 14.7122 24.3103 14.9921 24.2594C15.2203 24.2179 15.3937 24.0708 15.4873 23.8269L15.4959 23.8254C15.5589 24.0496 15.7241 24.1264 15.9265 24.0896C16.3915 24.0051 16.6726 23.5448 16.5583 22.9161C16.4268 22.1927 15.7896 21.7703 15.0318 21.9081C14.0587 22.0849 13.5599 22.9629 13.7196 23.8413C13.873 24.6852 14.5948 25.0834 15.3095 24.9535C15.6152 24.8979 15.8321 24.8184 16.0693 24.6552L15.9464 24.4196ZM15.3769 23.3666C15.3835 23.6234 15.2524 23.8563 15.0931 23.8852C14.951 23.911 14.859 23.821 14.8293 23.6574C14.769 23.3258 14.9421 23.0053 15.2263 22.9536C15.2822 22.9434 15.3268 22.9442 15.3628 22.9466L15.3769 23.3666Z" fill="#0D6E6A"/>
<path d="M37.235 28.3593V32.0157C37.235 32.2374 37.055 32.4175 36.8332 32.4175H26.8886C26.6669 32.4175 26.4868 32.2374 26.4868 32.0157V28.3593C26.4868 28.1376 26.6669 27.9575 26.8886 27.9575H36.8332C37.055 27.9575 37.235 28.1376 37.235 28.3593ZM37.235 28.3593V32.0157C37.235 32.2374 37.055 32.4175 36.8332 32.4175H26.8886C26.6669 32.4175 26.4868 32.2374 26.4868 32.0157V28.3593C26.4868 28.1376 26.6669 27.9575 26.8886 27.9575H36.8332C37.055 27.9575 37.235 28.1376 37.235 28.3593ZM37.4761 28.1182V31.7746C37.4761 31.9964 37.296 32.1764 37.0743 32.1764H27.1297C26.908 32.1764 26.7279 31.9964 26.7279 31.7746V28.1182C26.7279 27.8965 26.908 27.7164 27.1297 27.7164H37.0743C37.296 27.7164 37.4761 27.8965 37.4761 28.1182ZM37.4761 28.1182V31.7746C37.4761 31.9964 37.296 32.1764 37.0743 32.1764H27.1297C26.908 32.1764 26.7279 31.9964 26.7279 31.7746V28.1182C26.7279 27.8965 26.908 27.7164 27.1297 27.7164H37.0743C37.296 27.7164 37.4761 27.8965 37.4761 28.1182ZM29.1287 28.068C30.1654 28.068 31.0071 28.9097 31.0071 29.9464C31.0071 30.9831 30.1654 31.8248 29.1287 31.8248C28.092 31.8248 27.2503 30.9831 27.2503 29.9464C27.2503 28.9097 28.092 28.068 29.1287 28.068ZM29.1287 28.068C30.1654 28.068 31.0071 28.9097 31.0071 29.9464C31.0071 30.9831 30.1654 31.8248 29.1287 31.8248C28.092 31.8248 27.2503 30.9831 27.2503 29.9464C27.2503 28.9097 28.092 28.068 29.1287 28.068ZM29.1287 28.6607C29.5558 28.6607 29.9021 29.007 29.9021 29.4341C29.9021 29.7863 29.6667 30.2407 29.3446 30.3892C29.3113 30.4047 30.2939 30.4939 30.3367 31.0417C30.1432 31.3075 29.6661 31.5637 29.1287 31.5637C28.5511 31.5637 28.0689 31.2372 27.883 31.0292C27.9082 30.4788 28.9191 30.3941 28.8768 30.3712C28.5733 30.2067 28.3552 29.7731 28.3552 29.4341C28.3552 29.007 28.7015 28.6607 29.1287 28.6607ZM29.1287 28.6607C29.5558 28.6607 29.9021 29.007 29.9021 29.4341C29.9021 29.7863 29.6667 30.2407 29.3446 30.3892C29.3113 30.4047 30.2939 30.4939 30.3367 31.0417C30.1432 31.3075 29.6661 31.5637 29.1287 31.5637C28.5511 31.5637 28.0689 31.2372 27.883 31.0292C27.9082 30.4788 28.9191 30.3941 28.8768 30.3712C28.5733 30.2067 28.3552 29.7731 28.3552 29.4341C28.3552 29.007 28.7015 28.6607 29.1287 28.6607Z" fill="black" fill-opacity="0.17"/>
<path d="M37.476 28.1182V31.7746C37.476 31.9964 37.296 32.1764 37.0742 32.1764H27.1297C26.9079 32.1764 26.7279 31.9964 26.7279 31.7746V28.1182C26.7279 27.8965 26.9079 27.7164 27.1297 27.7164H37.0742C37.296 27.7164 37.476 27.8965 37.476 28.1182ZM37.476 28.1182V31.7746C37.476 31.9964 37.296 32.1764 37.0742 32.1764H27.1297C26.9079 32.1764 26.7279 31.9964 26.7279 31.7746V28.1182C26.7279 27.8965 26.9079 27.7164 27.1297 27.7164H37.0742C37.296 27.7164 37.476 27.8965 37.476 28.1182ZM29.1286 28.068C30.1653 28.068 31.007 28.9097 31.007 29.9464C31.007 30.9831 30.1653 31.8248 29.1286 31.8248C28.0919 31.8248 27.2502 30.9831 27.2502 29.9464C27.2502 28.9097 28.0919 28.068 29.1286 28.068ZM29.1286 28.068C30.1653 28.068 31.007 28.9097 31.007 29.9464C31.007 30.9831 30.1653 31.8248 29.1286 31.8248C28.0919 31.8248 27.2502 30.9831 27.2502 29.9464C27.2502 28.9097 28.0919 28.068 29.1286 28.068ZM29.1286 28.6607C29.5558 28.6607 29.9021 29.007 29.9021 29.4341C29.9021 29.7863 29.6667 30.2407 29.3446 30.3892C29.3112 30.4047 30.2938 30.4939 30.3366 31.0417C30.1432 31.3075 29.666 31.5637 29.1286 31.5637C28.551 31.5637 28.0689 31.2372 27.883 31.0292C27.9082 30.4788 28.919 30.3941 28.8768 30.3712C28.5733 30.2067 28.3552 29.7731 28.3552 29.4341C28.3552 29.007 28.7015 28.6607 29.1286 28.6607ZM29.1286 28.6607C29.5558 28.6607 29.9021 29.007 29.9021 29.4341C29.9021 29.7863 29.6667 30.2407 29.3446 30.3892C29.3112 30.4047 30.2938 30.4939 30.3366 31.0417C30.1432 31.3075 29.666 31.5637 29.1286 31.5637C28.551 31.5637 28.0689 31.2372 27.883 31.0292C27.9082 30.4788 28.919 30.3941 28.8768 30.3712C28.5733 30.2067 28.3552 29.7731 28.3552 29.4341C28.3552 29.007 28.7015 28.6607 29.1286 28.6607Z" fill="white"/>
<path d="M29.1286 28.068C30.1653 28.068 31.007 28.9097 31.007 29.9464C31.007 30.9831 30.1653 31.8248 29.1286 31.8248C28.0919 31.8248 27.2502 30.9831 27.2502 29.9464C27.2502 28.9097 28.0919 28.068 29.1286 28.068ZM29.1286 28.068C30.1653 28.068 31.007 28.9097 31.007 29.9464C31.007 30.9831 30.1653 31.8248 29.1286 31.8248C28.0919 31.8248 27.2502 30.9831 27.2502 29.9464C27.2502 28.9097 28.0919 28.068 29.1286 28.068ZM29.1286 28.6606C29.5558 28.6606 29.9021 29.007 29.9021 29.4341C29.9021 29.7863 29.6667 30.2406 29.3446 30.3892C29.3112 30.4047 30.2938 30.4939 30.3366 31.0417C30.1432 31.3075 29.666 31.5637 29.1286 31.5637C28.551 31.5637 28.0689 31.2372 27.883 31.0292C27.9082 30.4788 28.919 30.3941 28.8768 30.3712C28.5733 30.2067 28.3552 29.7731 28.3552 29.4341C28.3552 29.007 28.7015 28.6606 29.1286 28.6606ZM29.1286 28.6606C29.5558 28.6606 29.9021 29.007 29.9021 29.4341C29.9021 29.7863 29.6667 30.2406 29.3446 30.3892C29.3112 30.4047 30.2938 30.4939 30.3366 31.0417C30.1432 31.3075 29.666 31.5637 29.1286 31.5637C28.551 31.5637 28.0689 31.2372 27.883 31.0292C27.9082 30.4788 28.919 30.3941 28.8768 30.3712C28.5733 30.2067 28.3552 29.7731 28.3552 29.4341C28.3552 29.007 28.7015 28.6606 29.1286 28.6606Z" fill="#A3E2DF"/>
<path d="M29.1287 28.6606C29.5558 28.6606 29.9021 29.007 29.9021 29.4341C29.9021 29.7863 29.6667 30.2406 29.3446 30.3892C29.3112 30.4047 30.2939 30.4939 30.3367 31.0417C30.1432 31.3075 29.6661 31.5636 29.1287 31.5636C28.551 31.5636 28.0689 31.2372 27.883 31.0292C27.9082 30.4788 28.919 30.3941 28.8768 30.3712C28.5733 30.2067 28.3552 29.7731 28.3552 29.4341C28.3552 29.007 28.7015 28.6606 29.1287 28.6606ZM29.1287 28.6606C29.5558 28.6606 29.9021 29.007 29.9021 29.4341C29.9021 29.7863 29.6667 30.2406 29.3446 30.3892C29.3112 30.4047 30.2939 30.4939 30.3367 31.0417C30.1432 31.3075 29.6661 31.5636 29.1287 31.5636C28.551 31.5636 28.0689 31.2372 27.883 31.0292C27.9082 30.4788 28.919 30.3941 28.8768 30.3712C28.5733 30.2067 28.3552 29.7731 28.3552 29.4341C28.3552 29.007 28.7015 28.6606 29.1287 28.6606Z" fill="white"/>
<path d="M31.7906 29.5044H36.6322M31.7906 31.192H36.6322M31.7906 30.3482H36.6322" stroke="#1C8A85" stroke-width="0.4018" stroke-linecap="round" stroke-linejoin="round"/>
<path d="M31.7906 28.6406H34.121" stroke="#0D6E6A" stroke-width="0.4018" stroke-linecap="round" stroke-linejoin="round"/>
<mask id="mask1_211_455" style="mask-type:alpha" maskUnits="userSpaceOnUse" x="11" y="16" width="27" height="14">
<g opacity="0.99">
<path d="M37.7365 19.5168L37.7486 20.5432L11.1202 29.4981L11.1305 24.0102C11.1305 24.0102 32.0096 14.5096 35.0635 16.7371C36.3571 17.6807 37.2586 18.3508 37.3371 18.4424C37.5849 18.7311 37.735 19.1061 37.7365 19.5168Z" fill="#0D6E6A"/>
</g>
</mask>
<g mask="url(#mask1_211_455)">
<path d="M40.9458 16.9086L37.4887 18.3764L40.286 17.8593L41.3613 17.6978L40.8738 17.114L40.9458 16.9086ZM37.4887 18.3764L40.8372 17.1206L41.6239 15.6465L37.4887 18.3764ZM40.5925 17.5575L37.4887 18.3764L40.4643 18.9964L40.5925 17.5575Z" fill="black" fill-opacity="0.2"/>
<path d="M41.0031 16.6908L37.546 18.1586L40.3433 17.6415L41.4186 17.48L40.9311 16.8962L41.0031 16.6908ZM37.546 18.1586L40.8945 16.9028L41.6812 15.4287L37.546 18.1586ZM40.6498 17.3397L37.546 18.1586L40.5216 18.7786L40.6498 17.3397Z" fill="#A6BDDB"/>
<path d="M37.546 18.1586L40.8945 16.9028L41.6812 15.4287L37.546 18.1586ZM40.6498 17.3397L37.546 18.1586L40.5216 18.7786L40.6498 17.3397Z" fill="#D3DFED"/>
</g>
</g>
</g>
<defs>
<clipPath id="clip0_211_455">
<rect width="49" height="49" fill="white"/>
</clipPath>
</defs>
</svg>
